<svg xmlns="http://www.w3.org/2000/svg" xmlns:xlink="http://www.w3.org/1999/xlink" contentStyleType="text/css" height="356" preserveAspectRatio="none" style="width:1269px;height:356px;background:#FFFFFF;" version="1.1" viewBox="0 0 1269 356" width="1269" zoomAndPan="magnify"><defs/><g><text fill="#000000" font-family="sans-serif" font-size="14" font-weight="bold" lengthAdjust="spacing" textLength="242" x="506.5" y="22.9951">SpyPet App Use Case Diagram</text><!--cluster Main--><g id="cluster_Main"><rect fill="none" height="204" rx="2.5" ry="2.5" style="stroke:#181818;stroke-width:1.0;" width="667" x="7" y="146.7969"/><text fill="#000000" font-family="sans-serif" font-size="14" font-weight="bold" lengthAdjust="spacing" textLength="39" x="321" y="161.792">Main</text></g><!--cluster RaspberryDevice--><g id="cluster_RaspberryDevice"><rect fill="none" height="96" rx="2.5" ry="2.5" style="stroke:#181818;stroke-width:1.0;" width="444" x="819" y="143.7969"/><text fill="#000000" font-family="sans-serif" font-size="14" font-weight="bold" lengthAdjust="spacing" textLength="134" x="974" y="158.792">RaspberryDevice</text></g><g id="elem_Sign Up"><ellipse cx="606.8615" cy="201.4915" fill="#F1F1F1" rx="50.3615" ry="14.6946" style="stroke:#181818;stroke-width:0.5;"/><text fill="#000000" font-family="sans-serif" font-size="14" lengthAdjust="spacing" textLength="54" x="576.8615" y="205.239">Sign Up</text></g><g id="elem_Sign In"><ellipse cx="474.8836" cy="201.4447" fill="#F1F1F1" rx="45.8836" ry="14.6478" style="stroke:#181818;stroke-width:0.5;"/><text fill="#000000" font-family="sans-serif" font-size="14" lengthAdjust="spacing" textLength="48" x="447.8836" y="205.1923">Sign In</text></g><g id="elem_View List of Owned Devices"><ellipse cx="221.1957" cy="309.136" fill="#F1F1F1" rx="114.6957" ry="25.3391" style="stroke:#181818;stroke-width:0.5;"/><text fill="#000000" font-family="sans-serif" font-size="14" lengthAdjust="spacing" textLength="196" x="123.1957" y="311.9827">View List of Owned Devices</text></g><g id="elem_Add Device to List"><ellipse cx="108.7932" cy="201.2555" fill="#F1F1F1" rx="85.2932" ry="19.4586" style="stroke:#181818;stroke-width:0.5;"/><text fill="#000000" font-family="sans-serif" font-size="14" lengthAdjust="spacing" textLength="131" x="43.2932" y="204.1022">Add Device to List</text></g><g id="elem_View Food Status"><ellipse cx="311.8658" cy="201.07" fill="#F1F1F1" rx="81.8658" ry="18.7732" style="stroke:#181818;stroke-width:0.5;"/><text fill="#000000" font-family="sans-serif" font-size="14" lengthAdjust="spacing" textLength="123" x="249.3805" y="204.2432">View Food Status</text></g><g id="elem_Schedule Food Delivery"><ellipse cx="513.8371" cy="309.4643" fill="#F1F1F1" rx="101.3371" ry="22.6674" style="stroke:#181818;stroke-width:0.5;"/><text fill="#000000" font-family="sans-serif" font-size="14" lengthAdjust="spacing" textLength="167" x="430.3371" y="312.311">Schedule Food Delivery</text></g><g id="elem_CF"><ellipse cx="1160.0998" cy="201.5168" fill="#F1F1F1" rx="86.5998" ry="19.72" style="stroke:#181818;stroke-width:0.5;"/><text fill="#000000" font-family="sans-serif" font-size="14" lengthAdjust="spacing" textLength="134" x="1093.0998" y="204.3635">Check Food Status</text></g><g id="elem_SFD"><ellipse cx="936.8371" cy="201.4643" fill="#F1F1F1" rx="101.3371" ry="22.6674" style="stroke:#181818;stroke-width:0.5;"/><text fill="#000000" font-family="sans-serif" font-size="14" lengthAdjust="spacing" textLength="167" x="853.3371" y="204.311">Schedule Food Delivery</text></g><!--entity User--><g id="elem_User"><ellipse cx="659" cy="51.2969" fill="#F1F1F1" rx="8" ry="8" style="stroke:#181818;stroke-width:0.5;"/><path d="M659,59.2969 L659,86.2969 M646,67.2969 L672,67.2969 M659,86.2969 L646,101.2969 M659,86.2969 L672,101.2969 " fill="none" style="stroke:#181818;stroke-width:0.5;"/><text fill="#000000" font-family="sans-serif" font-size="14" lengthAdjust="spacing" textLength="31" x="643.5" y="115.792">User</text></g><!--link User to Sign Up--><g id="link_User_Sign Up"><path d="M643.398,117.3509 C634.046,138.6629 622.545,164.8709 615.006,182.0529 " fill="none" id="User-to-Sign Up" style="stroke:#181818;stroke-width:1.0;"/><polygon fill="#181818" points="612.99,186.6479,620.2686,180.013,614.9987,182.0691,612.9426,176.7991,612.99,186.6479" style="stroke:#181818;stroke-width:1.0;"/></g><!--link User to Sign In--><g id="link_User_Sign In"><path d="M643.282,86.7879 C619.408,94.8109 573.173,112.1119 539,135.7969 C519.564,149.2679 500.945,169.0789 488.851,183.1859 " fill="none" id="User-to-Sign In" style="stroke:#181818;stroke-width:1.0;"/><polygon fill="#181818" points="485.618,187.0039,494.4876,182.7225,488.85,183.1889,488.3836,177.5513,485.618,187.0039" style="stroke:#181818;stroke-width:1.0;"/></g><!--link User to View List of Owned Devices--><g id="link_User_View List of Owned Devices"><path d="M674.623,113.8809 C690.095,150.8399 707.222,211.1669 675,247.7969 C633.565,294.9004 457.173,275.4232 395,283.7969 C370.867,287.0472 344.867,290.6525 320.51,294.0755 " fill="none" id="User-to-View List of Owned Devices" style="stroke:#181818;stroke-width:1.0;"/><polygon fill="#181818" points="315.339,294.803,324.8088,297.5091,320.2902,294.1058,323.6934,289.5872,315.339,294.803" style="stroke:#181818;stroke-width:1.0;"/></g><!--link User to Add Device to List--><g id="link_User_Add Device to List"><path d="M643.401,81.2689 C584.811,79.7789 373.029,78.8629 212,135.7969 C183.772,145.7769 155.19,164.5119 135.32,179.2289 " fill="none" id="User-to-Add Device to List" style="stroke:#181818;stroke-width:1.0;"/><polygon fill="#181818" points="131.215,182.3039,140.8164,180.1099,135.2169,179.3064,136.0204,173.7069,131.215,182.3039" style="stroke:#181818;stroke-width:1.0;"/></g><!--link User to View Food Status--><g id="link_User_View Food Status"><path d="M643.39,83.2589 C603.494,87.4049 495.088,101.2499 412,135.7969 C385.221,146.9319 357.74,165.2499 338.381,179.5259 " fill="none" id="User-to-View Food Status" style="stroke:#181818;stroke-width:1.0;"/><polygon fill="#181818" points="334.131,182.6899,343.7381,180.5212,338.1407,179.7029,338.959,174.1056,334.131,182.6899" style="stroke:#181818;stroke-width:1.0;"/></g><!--link User to Schedule Food Delivery--><g id="link_User_Schedule Food Delivery"><path d="M674.764,87.4519 C693.518,95.1369 723.929,110.8499 737,135.7969 C760.102,179.8889 767.241,208.2579 737,247.7969 C720.233,269.7184 657.067,285.5529 602.223,295.5108 " fill="none" id="User-to-Schedule Food Delivery" style="stroke:#181818;stroke-width:1.0;"/><polygon fill="#181818" points="597.282,296.3963,606.8462,298.747,602.2037,295.5148,605.4359,290.8723,597.282,296.3963" style="stroke:#181818;stroke-width:1.0;"/></g><!--link Add Device to List to View List of Owned Devices--><g id="link_Add Device to List_View List of Owned Devices"><path d="M128.253,220.5189 C145.727,237.0559 171.745,261.6809 191.781,280.6437 " fill="none" id="Add Device to List-to-View List of Owned Devices" style="stroke:#181818;stroke-width:1.0;"/><polygon fill="#181818" points="195.705,284.3566,191.9181,275.2649,192.0736,280.9196,186.4189,281.0751,195.705,284.3566" style="stroke:#181818;stroke-width:1.0;"/></g><!--link View Food Status to Schedule Food Delivery--><g id="link_View Food Status_Schedule Food Delivery"><path d="M343.562,218.8589 C378.003,236.9319 433.322,265.9609 471.549,286.0208 " fill="none" id="View Food Status-to-Schedule Food Delivery" style="stroke:#181818;stroke-width:1.0;"/><polygon fill="#181818" points="476.124,288.4213,470.0145,280.6964,471.6969,286.0973,466.2961,287.7797,476.124,288.4213" style="stroke:#181818;stroke-width:1.0;"/></g><!--link User to CF--><g id="link_User_CF"><path d="M674.693,81.6169 C729.187,81.4679 914.616,84.9609 1056,135.7969 C1084.37,145.9979 1113.25,164.7089 1133.35,179.3609 " fill="none" id="User-to-CF" style="stroke:#181818;stroke-width:1.0;"/><polygon fill="#181818" points="1137.5,182.4209,1132.6146,173.8691,1133.4703,179.4608,1127.8786,180.3165,1137.5,182.4209" style="stroke:#181818;stroke-width:1.0;"/></g><!--link User to SFD--><g id="link_User_SFD"><path d="M674.893,86.8819 C702.394,95.8299 760.471,115.3839 808,135.7969 C837.673,148.5409 870.189,164.8149 895.153,177.8279 " fill="none" id="User-to-SFD" style="stroke:#181818;stroke-width:1.0;"/><polygon fill="#181818" points="899.724,180.2179,893.603,172.5021,895.2935,177.9005,889.8951,179.5909,899.724,180.2179" style="stroke:#181818;stroke-width:1.0;"/></g><!--SRC=[ZL3D2i8m3BxtANBKWwyWoCP0K1JBlCSkpgAsfOsE8Njtrw7Y_CDBeTzl4jPy892kNXB3n3d80q62xPDgB3qUXK35raVS2-59CPgojSnH6xW8w0WOZSOmaBeqaBlXEpWrVN2jgOAP3Wns2ulAK04fdRMYqDTDYZi1R3l3XvpCsW8a8vzUt5Bjg3YritQAb0xwJBwEca_1_qpsNlYxgNc-s0g3sv3tzQqu7c-Gx4Zj-uaO8CaYzoKr2cIMFg_QwH-_I3PN]--></g></svg>