<svg xmlns="http://www.w3.org/2000/svg" xmlns:xlink="http://www.w3.org/1999/xlink" contentStyleType="text/css" height="825" preserveAspectRatio="none" style="width:307px;height:825px;background:#FFFFFF;" version="1.1" viewBox="0 0 307 825" width="307" zoomAndPan="magnify"><defs/><g><text fill="#000000" font-family="sans-serif" font-size="14" font-weight="bold" lengthAdjust="spacing" textLength="234" x="29.5" y="22.9951">SpyPet App Activity Diagram</text><ellipse cx="95.5" cy="53.2969" fill="#222222" rx="10" ry="10" style="stroke:none;stroke-width:1.0;"/><rect fill="#F1F1F1" height="33.9688" rx="12.5" ry="12.5" style="stroke:#181818;stroke-width:0.5;" width="128" x="31.5" y="104.2969"/><text fill="#000000" font-family="sans-serif" font-size="12" lengthAdjust="spacing" textLength="108" x="41.5" y="125.4355">Sign In or Sign Up</text><g id="elem_#5"><polygon fill="#F1F1F1" points="95.5,179.2969,107.5,191.2969,95.5,203.2969,83.5,191.2969,95.5,179.2969" style="stroke:#181818;stroke-width:0.5;"/></g><rect fill="#F1F1F1" height="33.9688" rx="12.5" ry="12.5" style="stroke:#181818;stroke-width:0.5;" width="67" x="20" y="257.2969"/><text fill="#000000" font-family="sans-serif" font-size="12" lengthAdjust="spacing" textLength="47" x="30" y="278.4355">Sign Up</text><rect fill="#F1F1F1" height="33.9688" rx="12.5" ry="12.5" style="stroke:#181818;stroke-width:0.5;" width="189" x="7" y="332.2969"/><text fill="#000000" font-family="sans-serif" font-size="12" lengthAdjust="spacing" textLength="169" x="17" y="353.4355">View List of Owned Devices</text><rect fill="#F1F1F1" height="33.9688" rx="12.5" ry="12.5" style="stroke:#181818;stroke-width:0.5;" width="130" x="23.5" y="407.2969"/><text fill="#000000" font-family="sans-serif" font-size="12" lengthAdjust="spacing" textLength="110" x="33.5" y="428.4355">Add Device to List</text><rect fill="#F1F1F1" height="33.9688" rx="12.5" ry="12.5" style="stroke:#181818;stroke-width:0.5;" width="60" x="107.5" y="257.2969"/><text fill="#000000" font-family="sans-serif" font-size="12" lengthAdjust="spacing" textLength="40" x="117.5" y="278.4355">Sign In</text><rect fill="#F1F1F1" height="33.9688" rx="12.5" ry="12.5" style="stroke:#181818;stroke-width:0.5;" width="104" x="173.5" y="407.2969"/><text fill="#000000" font-family="sans-serif" font-size="12" lengthAdjust="spacing" textLength="84" x="183.5" y="428.4355">Select Device</text><g id="elem_#19"><polygon fill="#F1F1F1" points="225.5,482.2969,237.5,494.2969,225.5,506.2969,213.5,494.2969,225.5,482.2969" style="stroke:#181818;stroke-width:0.5;"/></g><rect fill="#F1F1F1" height="33.9688" rx="12.5" ry="12.5" style="stroke:#181818;stroke-width:0.5;" width="125" x="86" y="560.2969"/><text fill="#000000" font-family="sans-serif" font-size="12" lengthAdjust="spacing" textLength="105" x="96" y="581.4355">View Food Status</text><rect fill="#F1F1F1" height="33.9688" rx="12.5" ry="12.5" style="stroke:#181818;stroke-width:0.5;" width="165" x="136" y="635.2969"/><text fill="#000000" font-family="sans-serif" font-size="12" lengthAdjust="spacing" textLength="145" x="146" y="656.4355">Schedule Food Delivery</text><rect fill="#F1F1F1" height="33.9688" rx="12.5" ry="12.5" style="stroke:#181818;stroke-width:0.5;" width="149" x="144" y="710.2969"/><text fill="#000000" font-family="sans-serif" font-size="12" lengthAdjust="spacing" textLength="129" x="154" y="731.4355">Select Date and Time</text><rect fill="#F1F1F1" height="33.9688" rx="12.5" ry="12.5" style="stroke:#181818;stroke-width:0.5;" width="149" x="144" y="785.2969"/><text fill="#000000" font-family="sans-serif" font-size="12" lengthAdjust="spacing" textLength="129" x="154" y="806.4355">Delivery Confirmation</text><!--link start to Sign In or Sign Up--><g id="link_start_Sign In or Sign Up"><path d="M95.5,63.4739 C95.5,72.5659 95.5,86.8239 95.5,98.7819 " fill="none" id="start-to-Sign In or Sign Up" style="stroke:#181818;stroke-width:1.0;"/><polygon fill="#181818" points="95.5,104.0879,99.5,95.0879,95.5,99.0879,91.5,95.0879,95.5,104.0879" style="stroke:#181818;stroke-width:1.0;"/></g><!--link Sign In or Sign Up to #5--><g id="link_Sign In or Sign Up_#5"><path d="M95.5,138.4119 C95.5,149.2129 95.5,163.3789 95.5,174.1799 " fill="none" id="Sign In or Sign Up-to-#5" style="stroke:#181818;stroke-width:1.0;"/><polygon fill="#181818" points="95.5,179.1819,99.5,170.1819,95.5,174.1819,91.5,170.1819,95.5,179.1819" style="stroke:#181818;stroke-width:1.0;"/><text fill="#000000" font-family="sans-serif" font-size="11" lengthAdjust="spacing" textLength="61" x="19.6313" y="168.7574">New User?</text></g><!--link #5 to Sign Up--><g id="link_#5_Sign Up"><path d="M91.624,199.7719 C85.4613,211.6569 73.2108,235.2829 64.2541,252.5569 " fill="none" id="#5-to-Sign Up" style="stroke:#181818;stroke-width:1.0;"/><polygon fill="#181818" points="61.8229,257.2459,69.5166,251.0971,64.1243,252.807,62.4144,247.4148,61.8229,257.2459" style="stroke:#181818;stroke-width:1.0;"/><text fill="#000000" font-family="sans-serif" font-size="11" lengthAdjust="spacing" textLength="21" x="79.5" y="234.5073">yes</text></g><!--link Sign Up to View List of Owned Devices--><g id="link_Sign Up_View List of Owned Devices"><path d="M64.1528,291.4979 C71.175,302.1779 80.4326,316.2569 87.9739,327.7259 " fill="none" id="Sign Up-to-View List of Owned Devices" style="stroke:#181818;stroke-width:1.0;"/><polygon fill="#181818" points="90.877,332.1409,89.2745,322.4233,88.1299,327.9631,82.5901,326.8186,90.877,332.1409" style="stroke:#181818;stroke-width:1.0;"/></g><!--link View List of Owned Devices to Add Device to List--><g id="link_View List of Owned Devices_Add Device to List"><path d="M98.6149,366.4979 C96.7467,376.9889 94.2943,390.7599 92.2722,402.1149 " fill="none" id="View List of Owned Devices-to-Add Device to List" style="stroke:#181818;stroke-width:1.0;"/><polygon fill="#181818" points="91.3771,407.1409,96.8939,398.9821,92.2542,402.2184,89.018,397.5787,91.3771,407.1409" style="stroke:#181818;stroke-width:1.0;"/></g><!--link #5 to Sign In--><g id="link_#5_Sign In"><path d="M99.376,199.7719 C105.5387,211.6569 117.789,235.2829 126.746,252.5569 " fill="none" id="#5-to-Sign In" style="stroke:#181818;stroke-width:1.0;"/><polygon fill="#181818" points="129.177,257.2459,128.5853,247.4148,126.8755,252.8071,121.4832,251.0973,129.177,257.2459" style="stroke:#181818;stroke-width:1.0;"/><text fill="#000000" font-family="sans-serif" font-size="11" lengthAdjust="spacing" textLength="14" x="119.5" y="234.5073">no</text></g><!--link Sign In to View List of Owned Devices--><g id="link_Sign In_View List of Owned Devices"><path d="M129.51,291.4979 C124.29,302.0829 117.423,316.0079 111.795,327.4209 " fill="none" id="Sign In-to-View List of Owned Devices" style="stroke:#181818;stroke-width:1.0;"/><polygon fill="#181818" points="109.467,332.1409,117.0351,325.8382,111.6785,327.6565,109.8601,322.2999,109.467,332.1409" style="stroke:#181818;stroke-width:1.0;"/></g><!--link View List of Owned Devices to Select Device--><g id="link_View List of Owned Devices_Select Device"><path d="M128.712,366.3169 C147.801,377.5549 173.394,392.6219 193.468,404.4389 " fill="none" id="View List of Owned Devices-to-Select Device" style="stroke:#181818;stroke-width:1.0;"/><polygon fill="#181818" points="197.923,407.0619,192.1974,399.0483,193.6145,404.5248,188.138,405.9419,197.923,407.0619" style="stroke:#181818;stroke-width:1.0;"/></g><!--link Select Device to #19--><g id="link_Select Device_#19"><path d="M225.5,441.4119 C225.5,452.2129 225.5,466.3789 225.5,477.1799 " fill="none" id="Select Device-to-#19" style="stroke:#181818;stroke-width:1.0;"/><polygon fill="#181818" points="225.5,482.1819,229.5,473.1819,225.5,477.1819,221.5,473.1819,225.5,482.1819" style="stroke:#181818;stroke-width:1.0;"/><text fill="#000000" font-family="sans-serif" font-size="11" lengthAdjust="spacing" textLength="73" x="134.7063" y="471.7574">Food Status?</text></g><!--link #19 to View Food Status--><g id="link_#19_View Food Status"><path d="M219.962,501.1219 C209.191,512.4539 184.962,537.9409 167.707,556.0929 " fill="none" id="#19-to-View Food Status" style="stroke:#181818;stroke-width:1.0;"/><polygon fill="#181818" points="163.92,560.0759,173.0209,556.3112,167.3658,556.4529,167.2241,550.7978,163.92,560.0759" style="stroke:#181818;stroke-width:1.0;"/><text fill="#000000" font-family="sans-serif" font-size="11" lengthAdjust="spacing" textLength="21" x="195.5" y="537.5073">yes</text></g><!--link View Food Status to Schedule Food Delivery--><g id="link_View Food Status_Schedule Food Delivery"><path d="M164.035,594.4979 C174.457,605.3669 188.256,619.7559 199.356,631.3319 " fill="none" id="View Food Status-to-Schedule Food Delivery" style="stroke:#181818;stroke-width:1.0;"/><polygon fill="#181818" points="203.008,635.1409,199.6663,625.8762,199.5475,631.5319,193.8919,631.413,203.008,635.1409" style="stroke:#181818;stroke-width:1.0;"/></g><!--link #19 to Schedule Food Delivery--><g id="link_#19_Schedule Food Delivery"><path d="M225.019,506.0199 C223.875,531.5029 220.978,596.0839 219.46,629.9019 " fill="none" id="#19-to-Schedule Food Delivery" style="stroke:#181818;stroke-width:1.0;"/><polygon fill="#181818" points="219.229,635.0549,223.6287,626.2434,219.4533,630.0599,215.6368,625.8845,219.229,635.0549" style="stroke:#181818;stroke-width:1.0;"/><text fill="#000000" font-family="sans-serif" font-size="11" lengthAdjust="spacing" textLength="14" x="224.5" y="581.5073">no</text></g><!--link Schedule Food Delivery to Select Date and Time--><g id="link_Schedule Food Delivery_Select Date and Time"><path d="M218.5,669.4979 C218.5,679.9889 218.5,693.7599 218.5,705.1149 " fill="none" id="Schedule Food Delivery-to-Select Date and Time" style="stroke:#181818;stroke-width:1.0;"/><polygon fill="#181818" points="218.5,710.1409,222.5,701.1409,218.5,705.1409,214.5,701.1409,218.5,710.1409" style="stroke:#181818;stroke-width:1.0;"/></g><!--link Select Date and Time to Delivery Confirmation--><g id="link_Select Date and Time_Delivery Confirmation"><path d="M218.5,744.498 C218.5,754.9886 218.5,768.7596 218.5,780.1145 " fill="none" id="Select Date and Time-to-Delivery Confirmation" style="stroke:#181818;stroke-width:1.0;"/><polygon fill="#181818" points="218.5,785.1411,222.5,776.1411,218.5,780.1411,214.5,776.1411,218.5,785.1411" style="stroke:#181818;stroke-width:1.0;"/></g><!--SRC=[ZP31QiCm44Jl-ef1fwQGNqWnDOL2IGfkUYav26kTBDYIaJOE_ll6Yc9QI4floyxROMQ5fILK_VXEWgBlKTJ20yk8aiq-c4wfXyS5biiLTCLxXrS77v36RQ-LuWPwJITi8uKd3JcGKvZuhv7YBXzD92ucdto6tpWAV8FDoP55IGFN56UaiDSTn2TMAseZPL_dTtEMVzcIizmezHUJ2r9BjUHbxlRYlKKbHexnLhta-OEP0rNrWUpn_DiabjJoG66yKUGUbqFVqNy7Da8mpkA3kobtqguedhrhE7H6s3lz3G00]--></g></svg>